<mxfile host="app.diagrams.net" modified="2020-11-23T15:57:46.771Z" agent="5.0 (Windows NT 10.0; Win64; x64) AppleWebKit/537.36 (KHTML, like Gecko) Chrome/86.0.4240.75 Safari/537.36" etag="pR4gahOLjk7pqMzMn4w5" version="13.9.7" type="github">
  <diagram id="1dAgjJhuauymdvYx_2f9" name="Page-1">
    <mxGraphModel dx="868" dy="450" grid="1" gridSize="10" guides="1" tooltips="1" connect="1" arrows="1" fold="1" page="1" pageScale="1" pageWidth="827" pageHeight="1169" math="0" shadow="0">
      <root>
        <mxCell id="0" />
        <mxCell id="1" parent="0" />
        <mxCell id="xkWZ0DhyyNZXQXV1PlpO-5" value="" style="edgeStyle=orthogonalEdgeStyle;rounded=0;orthogonalLoop=1;jettySize=auto;html=1;sketch=1;" edge="1" parent="1" source="xkWZ0DhyyNZXQXV1PlpO-1" target="xkWZ0DhyyNZXQXV1PlpO-2">
          <mxGeometry relative="1" as="geometry" />
        </mxCell>
        <mxCell id="xkWZ0DhyyNZXQXV1PlpO-1" value="&lt;pre&gt;&lt;font style=&quot;font-size: 14px&quot;&gt;ProtocolListenerWrapper&lt;/font&gt;&lt;/pre&gt;" style="rounded=1;whiteSpace=wrap;html=1;sketch=1;fillColor=#f5f5f5;strokeColor=#666666;fontColor=#333333;" vertex="1" parent="1">
          <mxGeometry x="40" y="150" width="210" height="60" as="geometry" />
        </mxCell>
        <mxCell id="xkWZ0DhyyNZXQXV1PlpO-6" value="" style="edgeStyle=orthogonalEdgeStyle;rounded=0;orthogonalLoop=1;jettySize=auto;html=1;sketch=1;" edge="1" parent="1" source="xkWZ0DhyyNZXQXV1PlpO-2" target="xkWZ0DhyyNZXQXV1PlpO-3">
          <mxGeometry relative="1" as="geometry" />
        </mxCell>
        <mxCell id="xkWZ0DhyyNZXQXV1PlpO-2" value="&lt;pre&gt;&lt;font style=&quot;font-size: 14px&quot;&gt;ProtocolFilterWrapper&lt;/font&gt;&lt;/pre&gt;" style="rounded=1;whiteSpace=wrap;html=1;sketch=1;fillColor=#dae8fc;strokeColor=#6c8ebf;" vertex="1" parent="1">
          <mxGeometry x="300" y="150" width="200" height="60" as="geometry" />
        </mxCell>
        <mxCell id="xkWZ0DhyyNZXQXV1PlpO-3" value="XxxProtocol" style="rounded=1;whiteSpace=wrap;html=1;fillColor=#d5e8d4;strokeColor=#82b366;shadow=0;sketch=1;" vertex="1" parent="1">
          <mxGeometry x="540" y="150" width="190" height="60" as="geometry" />
        </mxCell>
        <mxCell id="xkWZ0DhyyNZXQXV1PlpO-4" value="&lt;font style=&quot;font-size: 14px&quot;&gt;根据协议来确定&lt;br&gt;如&lt;font&gt;DubboProtocol，HttpProtocol&lt;/font&gt;&lt;/font&gt;" style="text;html=1;strokeColor=none;fillColor=none;align=center;verticalAlign=middle;whiteSpace=wrap;rounded=0;" vertex="1" parent="1">
          <mxGeometry x="510" y="90" width="250" height="40" as="geometry" />
        </mxCell>
      </root>
    </mxGraphModel>
  </diagram>
</mxfile>
